<?xml version="1.0" encoding="iso-8859-1"?>
<!-- Generator: Adobe Illustrator 19.0.0, SVG Export Plug-In . SVG Version: 6.00 Build 0)  -->
<svg version="1.1" id="Capa_1" xmlns="http://www.w3.org/2000/svg" xmlns:xlink="http://www.w3.org/1999/xlink" x="0px" y="0px"
	 viewBox="0 0 489.325 489.325" style="enable-background:new 0 0 489.325 489.325;" xml:space="preserve">
<g>
	<path d="M449.662,118.625v-2.4h-0.2c-1.2-29.6-21.2-59-60.3-81.5c-80.2-46.3-210.2-46.3-289.9,0c-39.9,23.2-59.7,53.6-59.6,84l0,0
		v62.7v1.1v61.6v1.1v61.6v1.1v62.7c0.2,30.4,20.4,60.8,60.5,83.9c40.2,23.2,92.7,34.8,145.1,34.8c52.5,0,104.8-11.6,144.8-34.8
		c39.9-23.2,59.7-53.6,59.6-83.9v-62.7v-3.5v-59.2v-3.7v-59.2v-3.5L449.662,118.625
		C449.662,118.725,449.662,118.625,449.662,118.625z M140.962,81.025l11.1-6.4c2.8-1.6,7.2-1.6,10.1,0l13.7,7.9
		c3-1.8,6.1-3.5,9.1-5.3l-13.7-7.9c-2.8-1.6-2.8-4.2,0-5.8l11.1-6.4c2.8-1.6,7.3-1.6,10.1,0l17.5,10.1l2.3-0.7
		c19.6-6,40.4-8.7,62.6-7.1c17.4,1.3,33,5.4,47.3,11.4c5.6,2.3,10.8,4.9,15.5,7.6c12.4,7.2,21.9,15.6,29.3,25.1l1.5,2.6
		c1.7,3.5-0.3,5.9-6.2,7.3c-6.2,1.6-12.5,3-18.8,4.4c-4.4,0.9-7.5,0.7-10.2-0.9c-0.7-0.4-1.3-0.9-2-1.4c-4.2-3.9-8-8.1-12.5-11.9
		c-4-3.5-8.4-6.8-13.4-9.7c-6.6-3.8-14.2-7-23.3-9.2c-13.6-3.4-26.9-2.6-40.3,0.5l-0.5,0.1l33.9,19.6c2.8,1.6,2.8,4.2,0,5.8
		l-11.1,6.4c-2.8,1.6-7.3,1.6-10.1,0l-38.9-22.4c-2.9,1.7-6,3.5-9.1,5.3l38.9,22.4c2.8,1.6,2.8,4.2,0,5.8l-11.1,6.4
		c-2.8,1.6-7.2,1.6-10.1,0l-35.5-20.5c-7.9,9.6-10.4,19.1-1.5,29c3.8,4.2,8.7,7.9,14.4,11.2c5,2.9,10.5,5.4,16.4,7.7
		c6.6,2.4,13.6,4.6,20.4,7.1c1.1,0.4,2,0.8,2.8,1.3c2.7,1.6,3.1,3.4,1.5,5.9c-2.3,3.8-4.9,7.5-7.7,11.1c-2.3,3.3-6.6,4.5-12.8,3.3
		c-6.2-1.4-12.3-3.1-18.3-5c-11-3.6-20.9-7.8-29.5-12.8c-9-5.2-16.6-11.2-22.7-18c-14.3-16.2-14-32.7-2.3-49.3
		c2.3-3.3,5.5-6.2,8.3-9.3l-16.6-9.6C138.162,85.225,138.162,82.625,140.962,81.025z M100.162,202.625c80.3,46.4,210.1,46.4,289.9,0
		c12.4-7.2,22.7-15.2,31.2-23.6v3.5c0.1,20.8-16.5,42.5-45.5,59.3c-34.4,20-80.7,31-130.5,31s-96.4-11-131-31
		c-29.3-16.9-46.2-38.7-46.4-59.4v-4.1C76.762,186.925,87.362,195.225,100.162,202.625z M375.862,367.125c-34.4,20-80.7,31-130.5,31
		s-96.4-11-131-31c-29.3-16.9-46.2-38.7-46.4-59.4v-3c8.8,8.7,19.3,16.9,32.2,24.3c40.2,23.2,92.7,34.8,145.1,34.8
		c52.5,0,104.8-11.6,144.8-34.8c12.4-7.2,22.7-15.2,31.2-23.6v2.5C421.462,328.725,404.862,350.325,375.862,367.125z
		 M375.862,304.525c-34.4,20-80.7,31-130.5,31s-96.4-11-131-31c-29.3-16.9-46.2-38.7-46.4-59.4v-3c8.8,8.7,19.3,16.9,32.2,24.3
		c40.2,23.2,92.7,34.8,145.1,34.8c52.5,0,104.8-11.6,144.8-34.8c12.4-7.2,22.7-15.2,31.2-23.6v2.5
		C421.462,266.025,404.862,287.625,375.862,304.525z M375.862,429.825c-34.4,20-80.7,31-130.5,31s-96.4-11-131-31
		c-29.3-16.9-46.2-38.7-46.4-59.4v-3c8.8,8.7,19.3,16.9,32.2,24.3c40.2,23.2,92.7,34.8,145.1,34.8c52.5,0,104.8-11.6,144.8-34.8
		c12.4-7.2,22.7-15.2,31.2-23.6v2.5C421.462,391.325,404.862,413.025,375.862,429.825z"/>
</g>
<g>
</g>
<g>
</g>
<g>
</g>
<g>
</g>
<g>
</g>
<g>
</g>
<g>
</g>
<g>
</g>
<g>
</g>
<g>
</g>
<g>
</g>
<g>
</g>
<g>
</g>
<g>
</g>
<g>
</g>
</svg>
